# xmcd
# 
# Track frame offsets:
#     150
#     11839
#     26696
#     39366
#     53693
#     63394
#     76245
#     89374
#     102857
#     117002
#     129710
#     162728
#     173261
#     189367
# 
# Disc length: 2700
# 
# Revision: 0
# Processed by: cddbd v1.5.2PL0 Copyright (c) Steve Scherf et al.
# Submitted via: fre:ac v1.0.27
# 
DISCID=a90a8a0e
DTITLE=Various Artist - Roots of Canadian Music
DYEAR=2017
DGENRE=Pop-Folk
TTITLE0=Paul Anka - Put Your Head On My Shoulder
TTITLE1=Anne Murray - There Goes My Everything
TTITLE2=The Crew Cuts - Sh-Boom (Life Could Be A Dream)
TTITLE3=Motherlode - When I Die
TTITLE4=The Diamonds - Little Darlin'
TTITLE5=Oscar Peterson - Blue Moon
TTITLE6=The Four Lads - Standing On The Corner
TTITLE7=The Guess Who Featuring Chad Allen - Shakin' All Over
TTITLE8=R. Dean Taylor` - Indiana Wants Me
TTITLE9=Hank Snow - I'm Moving On
TTITLE10=Oscar Peterson - I Only Have Eyes For You
TTITLE11=Paul Anka - Diana
TTITLE12=Anne Murray - Both Sides Now
TTITLE13=The Crew Cuts - Earth Angel (Will You Be Mine)
EXTD=
EXTT0=
EXTT1=
EXTT2=
EXTT3=
EXTT4=
EXTT5=
EXTT6=
EXTT7=
EXTT8=
EXTT9=
EXTT10=
EXTT11=
EXTT12=
EXTT13=
PLAYORDER=
